ffmpeg started on 2016-11-25 at 21:43:09
Report written to "Output/NVENCh264/results/ffmpeg/sintelbd5000k.log"
Command line:
Tools/ffmpeg/ffmpeg -benchmark -y -i Input/y4m/sintel.y4m -c:v h264_nvenc -preset bd -b:v 5000k -an Output/NVENCh264/encoded/sintelbd5000k.mkv
ffmpeg version N-82227-gdb23fde Copyright (c) 2000-2016 the FFmpeg developers
  built with gcc 5.4.0 (Ubuntu 5.4.0-6ubuntu1~16.04.2) 20160609
  configuration: --prefix=/home/jaroslav/ffmpeg_build --pkg-config-flags=--static --extra-cflags=-I/home/jaroslav/ffmpeg_build/include --extra-ldflags=-L/home/jaroslav/ffmpeg_build/lib --bindir=/home/jaroslav/bin --enable-gpl --enable-libass --enable-libfdk-aac --enable-libfreetype --enable-libmp3lame --enable-libopus --enable-libtheora --enable-libvorbis --enable-libvpx --enable-libx264 --enable-libx265 --enable-nvenc --enable-libmfx --enable-libxvid --enable-libgsm --enable-libopencore-amrnb --enable-version3 --enable-nonfree
  libavutil      55. 35.100 / 55. 35.100
  libavcodec     57. 66.101 / 57. 66.101
  libavformat    57. 57.100 / 57. 57.100
  libavdevice    57.  2.100 / 57.  2.100
  libavfilter     6. 66.100 /  6. 66.100
  libswscale      4.  3.100 /  4.  3.100
  libswresample   2.  4.100 /  2.  4.100
  libpostproc    54.  2.100 / 54.  2.100
Input #0, yuv4mpegpipe, from 'Input/y4m/sintel.y4m':
  Duration: 00:00:20.83, start: 0.000000, bitrate: 2057307 kb/s
    Stream #0:0: Video: rawvideo (I420 / 0x30323449), yuv420p(progressive), 4096x1744, SAR 1:1 DAR 256:109, 24 fps, 24 tbr, 24 tbn, 24 tbc
Output #0, matroska, to 'Output/NVENCh264/encoded/sintelbd5000k.mkv':
  Metadata:
    encoder         : Lavf57.57.100
    Stream #0:0: Video: h264 (h264_nvenc) (Main) (H264 / 0x34363248), yuv420p, 4096x1744 [SAR 1:1 DAR 256:109], q=-1--1, 5000 kb/s, 24 fps, 1k tbn, 24 tbc
    Metadata:
      encoder         : Lavc57.66.101 h264_nvenc
    Side data:
      cpb: bitrate max/min/avg: 0/0/5000000 buffer size: 10000000 vbv_delay: -1
Stream mapping:
  Stream #0:0 -> #0:0 (rawvideo (native) -> h264 (h264_nvenc))
Press [q] to stop, [?] for help
frame=   16 fps=0.0 q=0.0 size=       0kB time=00:00:00.00 bitrate=N/A speed=   0x    frame=   36 fps= 35 q=36.0 size=       1kB time=00:00:00.20 bitrate=  28.6kbits/s speed=0.204x    frame=   57 fps= 37 q=40.0 size=       1kB time=00:00:01.08 bitrate=   5.5kbits/s speed=0.708x    frame=   78 fps= 38 q=39.0 size=       1kB time=00:00:01.95 bitrate=   3.1kbits/s speed=0.961x    frame=   99 fps= 39 q=40.0 size=       1kB time=00:00:02.83 bitrate=   2.1kbits/s speed=1.11x    frame=  120 fps= 39 q=39.0 size=       1kB time=00:00:03.70 bitrate=   1.6kbits/s speed=1.21x    frame=  141 fps= 40 q=37.0 size=       1kB time=00:00:04.58 bitrate=   1.3kbits/s speed=1.29x    frame=  162 fps= 21 q=39.0 size=    3018kB time=00:00:05.45 bitrate=4529.1kbits/s speed=0.709x    frame=  163 fps= 15 q=39.0 size=    3018kB time=00:00:05.50 bitrate=4494.5kbits/s speed=0.503x    frame=  175 fps= 15 q=39.0 size=    3018kB time=00:00:06.00 bitrate=4120.0kbits/s speed=0.524x    frame=  196 fps= 16 q=38.0 size=    3018kB time=00:00:06.87 bitrate=3595.7kbits/s speed=0.575x    frame=  217 fps= 17 q=39.0 size=    3018kB time=00:00:07.75 bitrate=3189.8kbits/s speed=0.622x    frame=  238 fps= 18 q=39.0 size=    3018kB time=00:00:08.62 bitrate=2866.3kbits/s speed=0.665x    frame=  259 fps= 19 q=39.0 size=    3018kB time=00:00:09.50 bitrate=2602.3kbits/s speed=0.705x    frame=  280 fps= 20 q=38.0 size=    5840kB time=00:00:10.37 bitrate=4610.4kbits/s speed=0.741x    frame=  301 fps= 21 q=38.0 size=    6348kB time=00:00:11.25 bitrate=4622.2kbits/s speed=0.775x    frame=  322 fps= 21 q=37.0 size=    6348kB time=00:00:12.12 bitrate=4288.6kbits/s speed=0.807x    frame=  343 fps= 22 q=35.0 size=    6348kB time=00:00:13.00 bitrate=4000.0kbits/s speed=0.837x    frame=  364 fps= 23 q=35.0 size=    6348kB time=00:00:13.87 bitrate=3747.8kbits/s speed=0.865x    frame=  385 fps= 23 q=33.0 size=    6348kB time=00:00:14.75 bitrate=3525.4kbits/s speed=0.891x    frame=  406 fps= 24 q=33.0 size=    6348kB time=00:00:15.62 bitrate=3328.0kbits/s speed=0.916x    frame=  427 fps= 24 q=34.0 size=    8608kB time=00:00:16.50 bitrate=4273.5kbits/s speed=0.939x    frame=  448 fps= 25 q=33.0 size=    8608kB time=00:00:17.37 bitrate=4058.3kbits/s speed=0.96x    frame=  469 fps= 25 q=34.0 size=    9403kB time=00:00:18.25 bitrate=4220.8kbits/s speed=0.981x    frame=  490 fps= 26 q=34.0 size=    9403kB time=00:00:19.12 bitrate=4027.7kbits/s speed=   1x    frame=  500 fps= 26 q=34.0 Lsize=   11462kB time=00:00:20.79 bitrate=4515.7kbits/s speed=1.07x    
video:11457kB audio:0kB subtitle:0kB other streams:0kB global headers:0kB muxing overhead: 0.041826%
bench: utime=0.924s
bench: maxrss=1185904kB
